<mxfile host="www.draw.io" modified="2019-10-21T08:35:40.395Z" agent="Mozilla/5.0 (Windows NT 6.1; Win64; x64) AppleWebKit/537.36 (KHTML, like Gecko) Chrome/77.0.3865.120 Safari/537.36" etag="gMKEJ1kD0WdbBvvgi3YB" version="12.1.3" type="github" pages="1">
  <diagram id="6a731a19-8d31-9384-78a2-239565b7b9f0" name="Page-1">
    <mxGraphModel dx="712" dy="365" grid="1" gridSize="10" guides="1" tooltips="1" connect="1" arrows="1" fold="1" page="1" pageScale="1" pageWidth="1169" pageHeight="827" background="#ffffff" math="0" shadow="0">
      <root>
        <mxCell id="0"/>
        <mxCell id="1" parent="0"/>
        <mxCell id="u3Y4FCzPSA5oBFftIpU5-57" value="" style="edgeStyle=orthogonalEdgeStyle;rounded=0;orthogonalLoop=1;jettySize=auto;html=1;" edge="1" parent="1" source="u3Y4FCzPSA5oBFftIpU5-55" target="u3Y4FCzPSA5oBFftIpU5-56">
          <mxGeometry relative="1" as="geometry"/>
        </mxCell>
        <mxCell id="u3Y4FCzPSA5oBFftIpU5-55" value="Start" style="ellipse;whiteSpace=wrap;html=1;" vertex="1" parent="1">
          <mxGeometry x="130" y="40" width="120" height="80" as="geometry"/>
        </mxCell>
        <mxCell id="u3Y4FCzPSA5oBFftIpU5-56" value="Tabung 8L,Tabung 5L, Tabung 4L&amp;nbsp;" style="shape=hexagon;perimeter=hexagonPerimeter2;whiteSpace=wrap;html=1;" vertex="1" parent="1">
          <mxGeometry x="130" y="150" width="120" height="80" as="geometry"/>
        </mxCell>
      </root>
    </mxGraphModel>
  </diagram>
</mxfile>
